<svg id="Layer_1" data-name="Layer 1" xmlns="http://www.w3.org/2000/svg" viewBox="0 0 122.95 62.88"><defs><style>.cls-1{fill:#fde756;}.cls-2{fill:#2a538a;}.cls-3{fill:#de356e;}.cls-4{fill:#6d6e71;}</style></defs><title>ELENA LOGO</title><text x="-115.03" y="-162.61"/><polygon class="cls-1" points="108.23 28.16 106.58 24.63 102.69 23.9 104.01 27.49 108.23 28.16"/><polygon class="cls-2" points="120.13 37.66 116.84 48.93 116.84 48.93 109.49 31.24 105.28 30.53 111.53 44.53 91.44 60.49 95.84 60.97 112.79 47.13 115.61 53.48 112.05 62.88 115.75 62.44 122.95 36.63 120.13 37.66"/><polygon class="cls-3" points="91.9 34.62 94.83 24.88 100.14 26.4 98.98 23.06 95.7 21.99 97.84 14.94 114.49 21.14 112.61 17.32 95.22 10.68 88.12 36.71 107.75 42.26 106.08 38.58 91.9 34.62"/><polygon class="cls-4" points="97.83 31.11 97.83 31.11 97.63 31.77 97.63 31.77 97.83 31.11"/></svg>